<?xml version="1.0" encoding="UTF-8"?>
<svg xmlns="http://www.w3.org/2000/svg" id="Logo" version="1.1" viewBox="76.61 156.14 340.02 107.25">
  <!-- Generator: Adobe Illustrator 29.0.1, SVG Export Plug-In . SVG Version: 2.1.0 Build 192)  -->
  <defs>
    <style>
      .st0 {
        fill: #303642;
      }

      .st1 {
        fill: #f1002f;
      }

      .st2 {
        fill: #ffbe00;
      }

      .st3 {
        fill: #438ab5;
      }
    </style>
  </defs>
  <path class="st0" d="M183.05,213.42c-5.07-1.93-7.33-3.3-7.33-6.34s2.5-4.98,6.22-4.98,6.63,1.41,7.97,2.25l.56.35,2.18-6.35-.36-.22c-2.72-1.61-6.52-2.57-10.17-2.57-8.49,0-14.43,5.08-14.43,12.34,0,5.22,3.81,9.33,11,11.9,5.28,1.95,7.15,3.76,7.15,6.92,0,3.43-2.73,5.48-7.31,5.48-3.49,0-7.22-1.42-9.38-2.83l-.57-.37-2.17,6.62.36.21c3.05,1.79,7.27,2.82,11.59,2.82,9.47,0,15.59-4.94,15.59-12.59,0-5.95-3.26-9.73-10.91-12.64M228.96,216.88c0-1.38.37-14.52-10.78-14.52-6.91,0-11.55,6.05-11.55,15.05,0,6.64,2.98,14.39,11.39,14.39,3,0,10.86-1.04,10.95-14.91M236.93,237.83h-7.26l-.28-5.97c-2.76,4.28-7.78,6.89-13.46,6.89-10.29,0-17.76-8.83-17.76-21-.04-6.89,2.16-12.93,6.2-17,3.32-3.34,7.72-5.17,12.39-5.17,6.71,0,10.24,3.19,11.8,5.22v-18.62h8.37v55.66ZM300.08,196.48l-5.85,20.61c-1.01,3.6-2.03,7.42-2.76,11.23-.83-3.45-1.85-7.1-3.16-11.33l-6.36-20.52h-6.93l-6.7,20.94c-1.12,3.65-2.28,7.4-3.16,10.98-.72-3.55-1.65-7.14-2.62-10.91l-5.47-21.02h-8.6l12.36,40.97.11.37h7.42l6.62-19.51c1.12-3.43,2.28-7.16,3.26-11.43.89,3.89,1.93,7.41,3.17,11.35l6.28,19.6h7.42l13.33-41.34h-8.35ZM328.62,202.1c-8.21,0-11.89,7.6-11.89,15.13,0,8.67,4.93,14.97,11.72,14.97s11.72-6.36,11.72-15.13c0-7.21-3.62-14.97-11.55-14.97M328.78,195.57c11.92,0,19.92,8.54,19.92,21.26,0,15.14-10.34,21.92-20.59,21.92-11.68,0-19.84-8.74-19.84-21.26s8.24-21.92,20.51-21.92M373.42,195.57c-4.69,0-8.87,2.94-11.03,7.61l-.21-6.69h-7.1v41.34h8.29v-22c0-1.21.16-2.36.32-3.32.99-5.46,4.65-8.98,9.31-8.98.92,0,1.64.07,2.39.24l.63.14v-7.97l-.39-.1c-.76-.19-1.38-.27-2.21-.27M402.11,216.49l14.11-20.01h-9.19l-5.83,8.83-.8,1.29c-.95,1.53-1.92,3.1-2.89,4.82-1.18-1.99-2.37-3.96-3.76-6.04l-5.9-8.89h-9.43l14.02,20.26-14.69,21.09h9.36l5.99-9.32c.35-.56.7-1.11,1.04-1.65,1-1.59,1.95-3.1,2.86-4.71,1.31,2.22,2.54,4.27,3.97,6.38l6.07,9.31h9.59l-14.51-21.33Z"/>
  <polygon class="st2" points="122.87 237.59 146.64 156.14 160.68 156.14 136.9 237.59 122.87 237.59"/>
  <polygon class="st1" points="112.49 263.39 122.17 182.03 108.59 182.03 98.92 263.39 112.49 263.39"/>
  <polygon class="st3" points="97.3 237.59 89.65 196.41 76.61 196.41 84.19 237.59 97.3 237.59"/>
</svg>