<?xml version="1.0" encoding="UTF-8"?>
<svg width="79px" height="95px" viewBox="0 0 79 95" version="1.1" xmlns="http://www.w3.org/2000/svg" xmlns:xlink="http://www.w3.org/1999/xlink">
    <title>positive/landscape</title>
    <defs>
        <polygon id="path-1" points="0.6351 0.0474 7.9661 0.0474 7.9661 8 0.6351 8"></polygon>
        <polygon id="path-3" points="0.8008 0.0474 9.0378 0.0474 9.0378 8 0.8008 8"></polygon>
        <polygon id="path-5" points="0.3164 0.0474 8.5544 0.0474 8.5544 8 0.3164 8"></polygon>
    </defs>
    <g id="Desktop" stroke="none" stroke-width="1" fill="none" fill-rule="evenodd">
        <g id="D-home-v8" transform="translate(-61.000000, -78.000000)">
            <g id="Group-45" transform="translate(61.000000, 78.000000)">
                <polygon id="Fill-1" fill="#000000" points="58.6071 0.0006 39.0711 46.0556 19.5361 0.0036 0.0001 0.0016 29.3041 69.0816 48.8391 69.0816 78.1451 0.0006"></polygon>
                <polygon id="Fill-2" fill="#FFFFFF" points="57.1463 16.9175 57.9723 14.9695 60.8243 16.1785 59.0003 12.5515 59.9803 10.2425 61.8713 14.1845 67.0413 13.1345 66.0483 15.4715 62.6893 16.1305 63.1833 17.1805 64.9983 17.9495 64.1733 19.8975"></polygon>
                <polygon id="Fill-3" fill="#FFFFFF" points="44.0272 47.8198 44.8552 45.8738 50.1722 48.1308 51.6162 44.7278 53.3222 45.4538 51.0522 50.7998"></polygon>
                <polygon id="Fill-4" fill="#FFFFFF" points="46.6131 41.729 49.0111 36.08 50.6661 36.783 49.0871 40.504 50.1501 40.958 51.5801 37.584 53.1171 38.236 51.6851 41.609 52.7991 42.082 54.4001 38.308 56.0561 39.01 53.6361 44.711"></polygon>
                <g id="Group-44" transform="translate(9.000000, 18.128900)">
                    <path d="M45.2762,14.9214 C45.5562,14.2594 45.3962,13.7394 44.8862,13.5244 L44.8672,13.5164 C44.3142,13.2804 43.8632,13.5634 43.5862,14.2154 L43.0452,15.4894 L44.7322,16.2044 L45.2762,14.9214 Z M40.5332,16.7214 L41.9422,13.4004 C42.3972,12.3244 42.9952,11.7014 43.6772,11.4354 C44.2532,11.1934 44.8822,11.2154 45.5762,11.5074 L45.5952,11.5154 C46.6722,11.9714 47.1382,12.8464 47.1402,13.8754 L50.3002,13.2384 L49.3472,15.4874 L46.6172,15.9994 L46.6112,16.0224 L46.2572,16.8534 L48.3842,17.7564 L47.5562,19.7024 L40.5332,16.7214 Z" id="Fill-5" fill="#FFFFFF"></path>
                    <polygon id="Fill-7" fill="#FFFFFF" points="43.6492 9.3794 44.4792 7.4244 51.5032 10.4034 50.6732 12.3594"></polygon>
                    <path d="M48.4686,7.8491 L48.4476,7.8421 C46.3986,6.9731 45.4626,4.7161 46.3666,2.5881 C46.9746,1.1541 47.9686,0.4861 49.0976,0.2311 L49.6096,2.1741 C48.9376,2.3651 48.4196,2.6901 48.1346,3.3621 C47.7166,4.3461 48.2556,5.3931 49.2796,5.8281 L49.2986,5.8351 C50.3536,6.2841 51.4706,5.9391 51.8906,4.9541 C52.1986,4.2241 52.0386,3.6471 51.7086,3.0071 L53.3746,1.9881 C54.0076,3.0361 54.2986,4.2131 53.6366,5.7701 C52.7886,7.7781 50.5646,8.7411 48.4686,7.8491" id="Fill-9" fill="#FFFFFF"></path>
                    <polygon id="Fill-11" fill="#FFFFFF" points="34.7283 30.2856 33.8043 32.4676 37.1013 35.8726 32.3593 35.8676 31.4333 38.0506 39.7183 38.0546 40.1023 37.1466 40.4903 36.2416"></polygon>
                    <path d="M4.3573,64.5161 C5.0013,64.5161 5.3723,64.2651 5.3723,63.8171 L5.3723,63.7931 C5.3723,63.3781 5.0463,63.1061 4.3353,63.1061 L2.7183,63.1061 L2.7183,64.5161 L4.3573,64.5161 Z M4.0503,61.6201 C4.6963,61.6201 5.0563,61.4031 5.0563,60.9541 L5.0563,60.9331 C5.0563,60.5171 4.7293,60.2761 4.0953,60.2761 L2.7183,60.2761 L2.7183,61.6201 L4.0503,61.6201 Z M0.6523,58.5721 L4.5753,58.5721 C5.5373,58.5721 6.2153,58.8121 6.6633,59.2611 C6.9683,59.5671 7.1553,59.9701 7.1553,60.4951 L7.1553,60.5171 C7.1553,61.4031 6.6523,61.9261 5.9753,62.2211 C6.9023,62.5271 7.4933,63.0511 7.4933,64.0891 L7.4933,64.1111 C7.4933,65.4221 6.4213,66.2211 4.5973,66.2211 L0.6523,66.2211 L0.6523,58.5721 Z" id="Fill-13" fill="#000000"></path>
                    <path d="M8.8035,62.8667 L8.8035,58.5717 L10.9565,58.5717 L10.9565,62.8217 C10.9565,63.9257 11.5135,64.4517 12.3665,64.4517 C13.2195,64.4517 13.7745,63.9487 13.7745,62.8767 L13.7745,58.5717 L15.9285,58.5717 L15.9285,62.8087 C15.9285,65.2817 14.5185,66.3607 12.3445,66.3607 C10.1705,66.3607 8.8035,65.2597 8.8035,62.8667" id="Fill-15" fill="#000000"></path>
                    <path d="M17.0433,65.0825 L18.2233,63.6755 C18.9773,64.2745 19.8183,64.5925 20.7033,64.5925 C21.2703,64.5925 21.5773,64.3945 21.5773,64.0665 L21.5773,64.0465 C21.5773,63.7285 21.3263,63.5545 20.2883,63.3125 C18.6613,62.9415 17.4033,62.4815 17.4033,60.9095 L17.4033,60.8885 C17.4033,59.4685 18.5283,58.4405 20.3643,58.4405 C21.6643,58.4405 22.6813,58.7895 23.5113,59.4585 L22.4513,60.9555 C21.7513,60.4625 20.9873,60.1995 20.3103,60.1995 C19.7963,60.1995 19.5443,60.4185 19.5443,60.6895 L19.5443,60.7135 C19.5443,61.0625 19.8073,61.2165 20.8673,61.4585 C22.6263,61.8395 23.7183,62.4065 23.7183,63.8395 L23.7183,63.8595 C23.7183,65.4235 22.4833,66.3535 20.6263,66.3535 C19.2723,66.3535 17.9823,65.9255 17.0433,65.0825" id="Fill-17" fill="#000000"></path>
                    <polygon id="Fill-19" fill="#000000" points="25.2279 61.3686 25.2279 58.5706 27.3569 58.5706 27.3569 66.2216 25.2279 66.2216"></polygon>
                    <polygon id="Fill-21" fill="#000000" points="29.1927 58.5718 31.1707 58.5718 34.3167 62.6138 34.3167 58.5718 36.4147 58.5718 36.4147 66.2198 34.5567 66.2198 31.2897 62.0248 31.2897 66.2198 29.1927 66.2198"></polygon>
                    <polygon id="Fill-23" fill="#000000" points="38.2069 58.5718 44.3569 58.5718 44.3569 60.3758 40.3039 60.3758 40.3039 61.5338 43.9759 61.5338 43.9759 63.2058 40.3039 63.2058 40.3039 64.4188 44.4129 64.4188 44.4129 66.2198 38.2069 66.2198"></polygon>
                    <path d="M45.3533,65.0825 L46.5313,63.6755 C47.2873,64.2745 48.1283,64.5925 49.0133,64.5925 C49.5823,64.5925 49.8883,64.3945 49.8883,64.0665 L49.8883,64.0465 C49.8883,63.7285 49.6363,63.5545 48.5993,63.3125 C46.9703,62.9415 45.7143,62.4815 45.7143,60.9095 L45.7143,60.8885 C45.7143,59.4685 46.8393,58.4405 48.6753,58.4405 C49.9763,58.4405 50.9923,58.7895 51.8243,59.4585 L50.7633,60.9555 C50.0643,60.4625 49.2983,60.1995 48.6213,60.1995 C48.1053,60.1995 47.8553,60.4185 47.8553,60.6895 L47.8553,60.7135 C47.8553,61.0625 48.1173,61.2165 49.1773,61.4585 C50.9373,61.8395 52.0313,62.4065 52.0313,63.8395 L52.0313,63.8595 C52.0313,65.4235 50.7943,66.3535 48.9373,66.3535 C47.5823,66.3535 46.2923,65.9255 45.3533,65.0825" id="Fill-25" fill="#000000"></path>
                    <path d="M52.8065,65.0825 L53.9865,63.6755 C54.7405,64.2745 55.5795,64.5925 56.4685,64.5925 C57.0355,64.5925 57.3395,64.3945 57.3395,64.0665 L57.3395,64.0465 C57.3395,63.7285 57.0895,63.5545 56.0525,63.3125 C54.4235,62.9415 53.1655,62.4815 53.1655,60.9095 L53.1655,60.8885 C53.1655,59.4685 54.2905,58.4405 56.1265,58.4405 C57.4275,58.4405 58.4455,58.7895 59.2755,59.4585 L58.2145,60.9555 C57.5155,60.4625 56.7515,60.1995 56.0745,60.1995 C55.5585,60.1995 55.3085,60.4185 55.3085,60.6895 L55.3085,60.7135 C55.3085,61.0625 55.5705,61.2165 56.6305,61.4585 C58.3905,61.8395 59.4845,62.4065 59.4845,63.8395 L59.4845,63.8595 C59.4845,65.4235 58.2475,66.3535 56.3885,66.3535 C55.0355,66.3535 53.7455,65.9255 52.8065,65.0825" id="Fill-27" fill="#000000"></path>
                    <path d="M4.7576,74.7114 L5.9366,73.3024 C6.6906,73.9014 7.5316,74.2194 8.4166,74.2194 C8.9846,74.2194 9.2916,74.0234 9.2916,73.6934 L9.2916,73.6734 C9.2916,73.3574 9.0396,73.1824 8.0016,72.9404 C6.3746,72.5704 5.1166,72.1114 5.1166,70.5374 L5.1166,70.5164 C5.1166,69.0964 6.2426,68.0674 8.0776,68.0674 C9.3786,68.0674 10.3936,68.4184 11.2256,69.0854 L10.1656,70.5804 C9.4656,70.0914 8.7016,69.8264 8.0246,69.8264 C7.5096,69.8264 7.2586,70.0464 7.2586,70.3184 L7.2586,70.3414 C7.2586,70.6904 7.5216,70.8444 8.5806,71.0844 C10.3396,71.4664 11.4326,72.0324 11.4326,73.4674 L11.4326,73.4884 C11.4326,75.0514 10.1976,75.9794 8.3406,75.9794 C6.9856,75.9794 5.6956,75.5534 4.7576,74.7114" id="Fill-29" fill="#000000"></path>
                    <g id="Group-33" transform="translate(12.000000, 68.000000)">
                        <mask id="mask-2" fill="white">
                            <use xlink:href="#path-1"></use>
                        </mask>
                        <g id="Clip-32"></g>
                        <path d="M0.6351,4.0454 L0.6351,4.0244 C0.6351,1.7944 2.3501,0.0474 4.6671,0.0474 C6.2291,0.0474 7.2341,0.7014 7.9111,1.6414 L6.3161,2.8764 C5.8791,2.3304 5.3761,1.9814 4.6441,1.9814 C3.5731,1.9814 2.8191,2.8894 2.8191,4.0014 L2.8191,4.0244 C2.8191,5.1714 3.5731,6.0664 4.6441,6.0664 C5.4421,6.0664 5.9111,5.6934 6.3701,5.1394 L7.9661,6.2744 C7.2451,7.2694 6.2721,8.0004 4.5781,8.0004 C2.3931,8.0004 0.6351,6.3284 0.6351,4.0454" id="Fill-31" fill="#000000" mask="url(#mask-2)"></path>
                    </g>
                    <polygon id="Fill-34" fill="#000000" points="21.3089 68.1997 23.4299 68.1997 23.4299 71.0617 26.1509 71.0617 26.1509 68.1997 28.2709 68.1997 28.2709 75.8467 26.1509 75.8467 26.1509 72.9397 23.4299 72.9397 23.4299 75.8467 21.3089 75.8467"></polygon>
                    <g id="Group-38" transform="translate(29.000000, 68.000000)">
                        <mask id="mask-4" fill="white">
                            <use xlink:href="#path-3"></use>
                        </mask>
                        <g id="Clip-37"></g>
                        <path d="M6.8748,4.0454 L6.8748,4.0244 C6.8748,2.9204 6.0778,1.9594 4.9078,1.9594 C3.7498,1.9594 2.9738,2.8994 2.9738,4.0014 L2.9738,4.0244 C2.9738,5.1274 3.7718,6.0904 4.9298,6.0904 C6.0988,6.0904 6.8748,5.1494 6.8748,4.0454 M0.8008,4.0454 L0.8008,4.0244 C0.8008,1.8264 2.5698,0.0474 4.9298,0.0474 C7.2908,0.0474 9.0378,1.8054 9.0378,4.0014 L9.0378,4.0244 C9.0378,6.2194 7.2678,8.0004 4.9078,8.0004 C2.5478,8.0004 0.8008,6.2404 0.8008,4.0454" id="Fill-36" fill="#000000" mask="url(#mask-4)"></path>
                    </g>
                    <g id="Group-41" transform="translate(39.000000, 68.000000)">
                        <mask id="mask-6" fill="white">
                            <use xlink:href="#path-5"></use>
                        </mask>
                        <g id="Clip-40"></g>
                        <path d="M6.3924,4.0454 L6.3924,4.0244 C6.3924,2.9204 5.5934,1.9594 4.4234,1.9594 C3.2664,1.9594 2.4914,2.8994 2.4914,4.0014 L2.4914,4.0244 C2.4914,5.1274 3.2874,6.0904 4.4464,6.0904 C5.6174,6.0904 6.3924,5.1494 6.3924,4.0454 M0.3164,4.0454 L0.3164,4.0244 C0.3164,1.8264 2.0854,0.0474 4.4464,0.0474 C6.8064,0.0474 8.5544,1.8054 8.5544,4.0014 L8.5544,4.0244 C8.5544,6.2194 6.7854,8.0004 4.4234,8.0004 C2.0664,8.0004 0.3164,6.2404 0.3164,4.0454" id="Fill-39" fill="#000000" mask="url(#mask-6)"></path>
                    </g>
                    <polygon id="Fill-42" fill="#000000" points="49.0955 68.1997 51.2165 68.1997 51.2165 73.9907 54.9195 73.9907 54.9195 75.8467 49.0955 75.8467"></polygon>
                </g>
            </g>
        </g>
    </g>
</svg>